<svg xmlns="http://www.w3.org/2000/svg" xmlns:xlink="http://www.w3.org/1999/xlink" width="528" zoomAndPan="magnify" viewBox="0 0 396 241.499998" height="322" preserveAspectRatio="xMidYMid meet" version="1.0"><defs><g/><clipPath id="99dac7d1e3"><path d="M 118.277344 37.945312 L 277.699219 37.945312 L 277.699219 95.574219 L 118.277344 95.574219 Z M 118.277344 37.945312 " clip-rule="nonzero"/></clipPath><clipPath id="142259ca11"><path d="M 118.277344 145.714844 L 277.699219 145.714844 L 277.699219 203.054688 L 118.277344 203.054688 Z M 118.277344 145.714844 " clip-rule="nonzero"/></clipPath></defs><g clip-path="url(#99dac7d1e3)"><path fill="#fafafa" d="M 197.988281 37.957031 C 221.199219 37.957031 242.214844 47.417969 257.425781 62.710938 C 266.507812 71.835938 273.519531 83.046875 277.699219 95.5625 L 276.472656 95.5625 C 272.339844 83.367188 265.472656 72.445312 256.605469 63.535156 C 241.605469 48.453125 220.878906 39.125 197.988281 39.125 C 175.09375 39.125 154.371094 48.453125 139.367188 63.535156 C 130.503906 72.445312 123.636719 83.367188 119.503906 95.5625 L 118.277344 95.5625 C 122.457031 83.046875 129.46875 71.839844 138.546875 62.710938 C 153.757812 47.417969 174.773438 37.957031 197.988281 37.957031 Z M 197.988281 37.957031 " fill-opacity="1" fill-rule="evenodd"/></g><g clip-path="url(#142259ca11)"><path fill="#fafafa" d="M 197.988281 203.039062 C 221.199219 203.039062 242.214844 193.582031 257.425781 178.289062 C 266.507812 169.160156 273.519531 157.953125 277.699219 145.4375 L 276.472656 145.4375 C 272.339844 157.628906 265.472656 168.554688 256.605469 177.464844 C 241.605469 192.542969 220.878906 201.871094 197.988281 201.871094 C 175.09375 201.871094 154.371094 192.542969 139.367188 177.464844 C 130.503906 168.550781 123.636719 157.628906 119.503906 145.4375 L 118.277344 145.4375 C 122.457031 157.953125 129.46875 169.160156 138.546875 178.289062 C 153.757812 193.582031 174.773438 203.039062 197.988281 203.039062 Z M 197.988281 203.039062 " fill-opacity="1" fill-rule="evenodd"/></g><g fill="#fafafa" fill-opacity="1"><g transform="translate(149.071916, 101.117386)"><g><path d="M -3.78125 -6.421875 L -3.453125 -6.9375 L -0.9375 -6.453125 L -2.421875 -8.53125 L -2.078125 -9.0625 L -0.3125 -6.53125 L 2.9375 -5.96875 L -0.75 -11.203125 L -0.359375 -11.8125 L 3.734375 -5.828125 L 3.421875 -5.328125 L -0.125 -5.9375 L 1.90625 -2.953125 L 1.59375 -2.46875 L -5.5625 -3.703125 L -5.1875 -4.296875 L 1.109375 -3.140625 L -0.75 -5.84375 Z M -3.78125 -6.421875 "/></g></g></g><g fill="#fafafa" fill-opacity="1"><g transform="translate(156.604061, 90.383168)"><g><path d="M 3.3125 -4.21875 L 3.71875 -3.8125 L 0.59375 -0.609375 L -4.1875 -5.28125 L -1.109375 -8.4375 L -0.703125 -8.03125 L -3.328125 -5.34375 L -1.59375 -3.65625 L 0.6875 -5.984375 L 1.078125 -5.59375 L -1.203125 -3.265625 L 0.640625 -1.484375 Z M 3.3125 -4.21875 "/></g></g></g><g fill="#fafafa" fill-opacity="1"><g transform="translate(163.131123, 84.065474)"><g><path d="M 3.734375 -4.84375 C 3.890625 -4.644531 3.984375 -4.425781 4.015625 -4.1875 C 4.054688 -3.957031 4.054688 -3.726562 4.015625 -3.5 C 3.972656 -3.28125 3.882812 -3.066406 3.75 -2.859375 C 3.613281 -2.660156 3.441406 -2.488281 3.234375 -2.34375 L 0.6875 -0.5 L -3.234375 -5.921875 L -0.640625 -7.8125 C -0.453125 -7.945312 -0.253906 -8.023438 -0.046875 -8.046875 C 0.160156 -8.078125 0.363281 -8.066406 0.5625 -8.015625 C 0.769531 -7.960938 0.960938 -7.875 1.140625 -7.75 C 1.328125 -7.625 1.484375 -7.476562 1.609375 -7.3125 C 1.804688 -7.039062 1.914062 -6.742188 1.9375 -6.421875 C 1.957031 -6.097656 1.890625 -5.785156 1.734375 -5.484375 C 2.109375 -5.617188 2.472656 -5.628906 2.828125 -5.515625 C 3.191406 -5.398438 3.492188 -5.175781 3.734375 -4.84375 Z M 3.140625 -4.546875 C 3.046875 -4.671875 2.925781 -4.78125 2.78125 -4.875 C 2.644531 -4.976562 2.5 -5.046875 2.34375 -5.078125 C 2.195312 -5.109375 2.046875 -5.109375 1.890625 -5.078125 C 1.734375 -5.054688 1.585938 -5 1.453125 -4.90625 L -0.609375 -3.390625 L 0.875 -1.34375 L 2.890625 -2.8125 C 3.023438 -2.914062 3.132812 -3.035156 3.21875 -3.171875 C 3.300781 -3.304688 3.351562 -3.453125 3.375 -3.609375 C 3.394531 -3.765625 3.382812 -3.925781 3.34375 -4.09375 C 3.300781 -4.257812 3.234375 -4.410156 3.140625 -4.546875 Z M -2.375 -5.828125 L -0.921875 -3.828125 L 0.9375 -5.1875 C 1.070312 -5.28125 1.175781 -5.394531 1.25 -5.53125 C 1.320312 -5.675781 1.363281 -5.820312 1.375 -5.96875 C 1.394531 -6.113281 1.382812 -6.257812 1.34375 -6.40625 C 1.300781 -6.5625 1.234375 -6.707031 1.140625 -6.84375 C 1.035156 -6.976562 0.914062 -7.09375 0.78125 -7.1875 C 0.65625 -7.289062 0.519531 -7.351562 0.375 -7.375 C 0.226562 -7.40625 0.0820312 -7.410156 -0.0625 -7.390625 C -0.207031 -7.367188 -0.34375 -7.3125 -0.46875 -7.21875 Z M -2.375 -5.828125 "/></g></g></g><g fill="#fafafa" fill-opacity="1"><g transform="translate(171.18623, 78.691649)"><g/></g></g><g fill="#fafafa" fill-opacity="1"><g transform="translate(176.370453, 76.056473)"><g><path d="M 0.796875 -0.28125 L -1.4375 -6.578125 L 0.703125 -7.328125 C 1.203125 -7.503906 1.664062 -7.578125 2.09375 -7.546875 C 2.53125 -7.515625 2.925781 -7.398438 3.28125 -7.203125 C 3.632812 -7.015625 3.941406 -6.753906 4.203125 -6.421875 C 4.472656 -6.085938 4.679688 -5.707031 4.828125 -5.28125 C 5.003906 -4.789062 5.085938 -4.328125 5.078125 -3.890625 C 5.066406 -3.453125 4.976562 -3.046875 4.8125 -2.671875 C 4.65625 -2.304688 4.414062 -1.984375 4.09375 -1.703125 C 3.78125 -1.421875 3.394531 -1.195312 2.9375 -1.03125 Z M 4.203125 -5.0625 C 4.078125 -5.425781 3.898438 -5.75 3.671875 -6.03125 C 3.453125 -6.3125 3.195312 -6.53125 2.90625 -6.6875 C 2.625 -6.84375 2.3125 -6.929688 1.96875 -6.953125 C 1.625 -6.984375 1.265625 -6.929688 0.890625 -6.796875 L -0.640625 -6.265625 L 1.21875 -1.046875 L 2.75 -1.578125 C 3.132812 -1.722656 3.453125 -1.914062 3.703125 -2.15625 C 3.953125 -2.394531 4.132812 -2.664062 4.25 -2.96875 C 4.375 -3.28125 4.429688 -3.613281 4.421875 -3.96875 C 4.410156 -4.320312 4.335938 -4.6875 4.203125 -5.0625 Z M 4.203125 -5.0625 "/></g></g></g><g fill="#fafafa" fill-opacity="1"><g transform="translate(185.968286, 73.013781)"><g><path d="M 5.15625 -1.4375 L 5.25 -0.875 L 0.828125 -0.140625 L -0.28125 -6.734375 L 4.0625 -7.453125 L 4.171875 -6.890625 L 0.484375 -6.28125 L 0.875 -3.890625 L 4.09375 -4.421875 L 4.1875 -3.875 L 0.96875 -3.34375 L 1.390625 -0.8125 Z M 5.15625 -1.4375 "/></g></g></g><g fill="#fafafa" fill-opacity="1"><g transform="translate(194.964383, 71.771788)"><g><path d="M 0.859375 -6.6875 L 3.203125 -0.796875 L 5.640625 -6.65625 L 6.328125 -6.65625 L 3.484375 0.015625 L 2.90625 0.015625 L 0.171875 -6.6875 Z M 0.859375 -6.6875 "/></g></g></g><g fill="#fafafa" fill-opacity="1"><g transform="translate(204.694683, 72.145122)"><g><path d="M 5.359375 0.375 L 5.25 0.9375 L 0.828125 0.15625 L 2.015625 -6.421875 L 6.359375 -5.65625 L 6.25 -5.09375 L 2.546875 -5.75 L 2.125 -3.359375 L 5.34375 -2.78125 L 5.25 -2.25 L 2.03125 -2.828125 L 1.578125 -0.296875 Z M 5.359375 0.375 "/></g></g></g><g fill="#fafafa" fill-opacity="1"><g transform="translate(213.594417, 74.03306)"><g><path d="M 0.796875 0.28125 L 3.03125 -6.015625 L 3.640625 -5.796875 L 1.59375 -0.046875 L 5.234375 1.25 L 5.046875 1.796875 Z M 0.796875 0.28125 "/></g></g></g><g fill="#fafafa" fill-opacity="1"><g transform="translate(221.837304, 77.20012)"><g><path d="M 3.046875 1.796875 C 2.648438 1.566406 2.328125 1.269531 2.078125 0.90625 C 1.835938 0.539062 1.675781 0.15625 1.59375 -0.25 C 1.507812 -0.664062 1.5 -1.085938 1.5625 -1.515625 C 1.632812 -1.941406 1.78125 -2.34375 2 -2.71875 C 2.21875 -3.101562 2.5 -3.429688 2.84375 -3.703125 C 3.1875 -3.972656 3.554688 -4.175781 3.953125 -4.3125 C 4.359375 -4.457031 4.769531 -4.515625 5.1875 -4.484375 C 5.613281 -4.453125 6.019531 -4.328125 6.40625 -4.109375 C 6.8125 -3.878906 7.132812 -3.582031 7.375 -3.21875 C 7.613281 -2.851562 7.769531 -2.460938 7.84375 -2.046875 C 7.925781 -1.640625 7.929688 -1.222656 7.859375 -0.796875 C 7.796875 -0.367188 7.65625 0.03125 7.4375 0.40625 C 7.226562 0.78125 6.945312 1.109375 6.59375 1.390625 C 6.25 1.671875 5.878906 1.875 5.484375 2 C 5.097656 2.132812 4.691406 2.1875 4.265625 2.15625 C 3.847656 2.132812 3.441406 2.015625 3.046875 1.796875 Z M 2.578125 -2.375 C 2.390625 -2.0625 2.265625 -1.734375 2.203125 -1.390625 C 2.140625 -1.046875 2.140625 -0.703125 2.203125 -0.359375 C 2.273438 -0.0234375 2.398438 0.28125 2.578125 0.5625 C 2.765625 0.851562 3.015625 1.09375 3.328125 1.28125 C 3.660156 1.457031 4 1.550781 4.34375 1.5625 C 4.695312 1.582031 5.03125 1.523438 5.34375 1.390625 C 5.664062 1.265625 5.957031 1.085938 6.21875 0.859375 C 6.488281 0.628906 6.710938 0.363281 6.890625 0.0625 C 7.066406 -0.25 7.179688 -0.582031 7.234375 -0.9375 C 7.296875 -1.300781 7.289062 -1.644531 7.21875 -1.96875 C 7.15625 -2.300781 7.03125 -2.609375 6.84375 -2.890625 C 6.664062 -3.179688 6.414062 -3.414062 6.09375 -3.59375 C 5.769531 -3.78125 5.4375 -3.878906 5.09375 -3.890625 C 4.75 -3.898438 4.414062 -3.84375 4.09375 -3.71875 C 3.78125 -3.59375 3.488281 -3.410156 3.21875 -3.171875 C 2.957031 -2.941406 2.742188 -2.675781 2.578125 -2.375 Z M 2.578125 -2.375 "/></g></g></g><g fill="#fafafa" fill-opacity="1"><g transform="translate(230.697831, 82.640928)"><g><path d="M 0.640625 0.546875 L 4.921875 -4.59375 L 7.046875 -2.828125 C 7.273438 -2.640625 7.441406 -2.421875 7.546875 -2.171875 C 7.660156 -1.929688 7.71875 -1.675781 7.71875 -1.40625 C 7.726562 -1.144531 7.691406 -0.882812 7.609375 -0.625 C 7.523438 -0.363281 7.398438 -0.140625 7.234375 0.046875 C 7.054688 0.265625 6.847656 0.441406 6.609375 0.578125 C 6.378906 0.722656 6.132812 0.8125 5.875 0.84375 C 5.625 0.882812 5.367188 0.875 5.109375 0.8125 C 4.847656 0.757812 4.609375 0.644531 4.390625 0.46875 L 2.734375 -0.921875 L 1.15625 0.96875 Z M 3.109375 -1.375 L 4.75 -0.015625 C 4.894531 0.109375 5.054688 0.1875 5.234375 0.21875 C 5.410156 0.257812 5.585938 0.265625 5.765625 0.234375 C 5.941406 0.203125 6.113281 0.132812 6.28125 0.03125 C 6.457031 -0.0703125 6.609375 -0.207031 6.734375 -0.375 C 6.867188 -0.53125 6.96875 -0.695312 7.03125 -0.875 C 7.09375 -1.0625 7.117188 -1.25 7.109375 -1.4375 C 7.109375 -1.625 7.070312 -1.800781 7 -1.96875 C 6.925781 -2.132812 6.816406 -2.273438 6.671875 -2.390625 L 5.078125 -3.71875 Z M 3.109375 -1.375 "/></g></g></g><g fill="#fafafa" fill-opacity="1"><g transform="translate(237.584957, 88.759505)"><g><path d="M 3.90625 3.671875 L 3.46875 4.046875 L 0.546875 0.640625 L 5.625 -3.703125 L 8.5 -0.359375 L 8.0625 0.015625 L 5.609375 -2.828125 L 3.765625 -1.265625 L 5.890625 1.21875 L 5.484375 1.578125 L 3.359375 -0.90625 L 1.40625 0.765625 Z M 3.90625 3.671875 "/></g></g></g><g fill="#fafafa" fill-opacity="1"><g transform="translate(243.291032, 95.829583)"><g><path d="M 0.4375 0.71875 L 6.171875 -2.71875 L 7.625 -0.28125 C 7.757812 -0.0390625 7.84375 0.210938 7.875 0.484375 C 7.90625 0.753906 7.878906 1.015625 7.796875 1.265625 C 7.710938 1.523438 7.582031 1.757812 7.40625 1.96875 C 7.238281 2.1875 7.046875 2.359375 6.828125 2.484375 C 6.617188 2.609375 6.398438 2.695312 6.171875 2.75 C 5.941406 2.8125 5.71875 2.832031 5.5 2.8125 C 5.289062 2.789062 5.082031 2.734375 4.875 2.640625 C 4.675781 2.546875 4.5 2.410156 4.34375 2.234375 L 2.96875 4.96875 L 2.59375 4.328125 L 3.90625 1.71875 L 2.890625 0.015625 L 0.765625 1.28125 Z M 3.375 -0.28125 L 4.5 1.609375 C 4.59375 1.765625 4.71875 1.890625 4.875 1.984375 C 5.039062 2.078125 5.210938 2.132812 5.390625 2.15625 C 5.578125 2.1875 5.765625 2.179688 5.953125 2.140625 C 6.140625 2.097656 6.320312 2.023438 6.5 1.921875 C 6.675781 1.816406 6.820312 1.6875 6.9375 1.53125 C 7.0625 1.375 7.148438 1.207031 7.203125 1.03125 C 7.265625 0.863281 7.285156 0.6875 7.265625 0.5 C 7.253906 0.3125 7.203125 0.132812 7.109375 -0.03125 L 6.015625 -1.859375 Z M 3.375 -0.28125 "/></g></g></g><g fill="#fafafa" fill-opacity="1"><g transform="translate(46.40197, 138.283838)"><g><path d="M 1.648438 -7.390625 C 1.992188 -7.597656 2.371094 -7.804688 2.714844 -8.007812 C 4.847656 -9.246094 7.148438 -9.761719 9.625 -9.589844 C 10.621094 -9.523438 11.617188 -9.382812 12.617188 -9.109375 C 14.953125 -8.457031 17.121094 -7.289062 19.386719 -6.429688 C 19.835938 -6.257812 19.59375 -6.050781 19.457031 -5.84375 C 17.636719 -3.4375 15.777344 -1.066406 13.613281 1.03125 C 12.410156 2.199219 11.171875 3.335938 9.554688 3.917969 C 7.289062 4.777344 6.222656 4.675781 5.019531 1.925781 C 4.332031 0.445312 4.296875 -1.132812 4.503906 -2.75 C 4.539062 -3.023438 4.503906 -3.230469 4.195312 -3.335938 C 3.917969 -3.4375 3.644531 -3.402344 3.472656 -3.09375 C 3.335938 -2.820312 3.230469 -2.542969 3.195312 -2.269531 C 3.023438 -0.722656 3.195312 0.789062 3.882812 2.234375 C 5.191406 4.914062 7.804688 5.84375 10.519531 4.570312 C 11.824219 3.953125 12.890625 3.09375 13.921875 2.097656 C 16.292969 -0.207031 18.253906 -2.851562 20.246094 -5.464844 C 20.523438 -5.808594 20.730469 -5.878906 21.175781 -5.742188 C 24.371094 -4.675781 27.535156 -3.539062 30.9375 -3.230469 C 31.386719 -3.195312 31.316406 -2.992188 31.214844 -2.679688 C 30.664062 -0.960938 30.113281 0.722656 29.632812 2.476562 C 29.253906 3.746094 28.910156 5.054688 28.945312 6.429688 C 28.980469 6.976562 29.21875 7.425781 29.699219 7.699219 C 30.285156 8.042969 30.628906 7.835938 30.59375 7.148438 C 30.558594 6.460938 30.699219 5.773438 30.835938 5.085938 C 31.351562 2.679688 32.175781 0.34375 32.964844 -1.992188 C 33.308594 -3.058594 33.308594 -3.058594 34.445312 -3.128906 C 34.683594 -3.128906 34.960938 -3.128906 35.199219 -3.164062 C 38.089844 -3.265625 40.804688 -3.988281 43.417969 -5.121094 C 43.554688 -5.15625 43.761719 -5.15625 43.726562 -5.398438 C 43.65625 -5.570312 43.519531 -5.636719 43.382812 -5.671875 C 43.210938 -5.671875 43.074219 -5.636719 42.9375 -5.601562 C 42.386719 -5.429688 41.871094 -5.292969 41.320312 -5.121094 C 39.015625 -4.433594 36.714844 -3.851562 34.273438 -3.882812 C 33.585938 -3.882812 33.585938 -3.882812 33.824219 -4.539062 C 35.886719 -10.277344 38.054688 -16.019531 40.253906 -21.726562 C 42.078125 -26.433594 44.070312 -31.109375 45.582031 -35.992188 C 45.960938 -37.296875 46.339844 -38.605469 46.304688 -39.980469 C 46.304688 -40.597656 46.132812 -41.113281 45.515625 -41.390625 C 44.894531 -41.664062 44.414062 -41.421875 44.035156 -40.976562 C 43.453125 -40.390625 42.867188 -39.773438 42.386719 -39.121094 C 37.574219 -32.828125 32.898438 -26.402344 28.703125 -19.628906 C 26.160156 -15.46875 23.480469 -11.378906 20.589844 -7.425781 C 20.28125 -6.945312 20.007812 -6.875 19.492188 -7.117188 C 18.390625 -7.632812 17.292969 -8.113281 16.191406 -8.59375 C 14.164062 -9.453125 12.167969 -10.382812 9.96875 -10.691406 C 7.046875 -11.070312 4.261719 -10.691406 1.820312 -8.867188 C 1.546875 -8.664062 1.238281 -8.457031 1.03125 -8.148438 C 0.859375 -7.941406 0.789062 -7.734375 0.996094 -7.527344 C 1.203125 -7.320312 1.410156 -7.253906 1.648438 -7.390625 Z M 21.691406 -7.425781 C 25.265625 -12.375 28.429688 -17.601562 31.695312 -22.722656 C 35.304688 -28.394531 39.257812 -33.792969 43.417969 -39.015625 C 43.898438 -39.601562 44.378906 -40.21875 45.136719 -40.734375 C 45.171875 -39.566406 44.929688 -38.605469 44.65625 -37.605469 C 43.3125 -33.308594 41.628906 -29.152344 39.910156 -24.957031 C 37.160156 -18.152344 34.238281 -11.378906 31.832031 -4.433594 C 31.695312 -4.054688 31.488281 -4.023438 31.144531 -4.054688 C 28.015625 -4.261719 25.027344 -5.15625 22.105469 -6.152344 C 21.074219 -6.496094 21.039062 -6.496094 21.691406 -7.425781 Z M 21.691406 -7.425781 "/></g></g></g><g fill="#fafafa" fill-opacity="1"><g transform="translate(89.646494, 138.283838)"><g><path d="M 8.902344 -21.382812 C 11.242188 -25.335938 13.683594 -29.183594 16.191406 -33.035156 C 16.605469 -33.652344 17.085938 -34.273438 17.394531 -34.996094 C 17.601562 -35.476562 17.394531 -35.75 16.878906 -35.714844 C 16.605469 -35.714844 16.433594 -35.542969 16.292969 -35.339844 C 15.777344 -34.71875 15.261719 -34.066406 14.746094 -33.414062 C 13.40625 -31.660156 12.273438 -29.769531 11.070312 -27.914062 C 9.179688 -25.027344 7.425781 -22.035156 5.742188 -19.011719 C 3.507812 -15.023438 1.476562 -10.929688 -0.273438 -6.667969 C -1.375 -3.988281 -2.441406 -1.304688 -3.367188 1.445312 C -3.574219 2.132812 -3.953125 2.648438 -4.503906 3.128906 C -5.5 3.953125 -6.394531 4.882812 -7.117188 6.015625 C -7.664062 6.910156 -8.214844 7.871094 -8.285156 8.9375 C -8.386719 10.449219 -7.597656 11.617188 -5.945312 11.824219 C -4.640625 11.960938 -3.472656 11.652344 -2.335938 11.035156 C -0.550781 10.070312 0.824219 8.628906 2.027344 7.011719 C 4.160156 4.125 5.808594 0.960938 7.117188 -2.371094 C 7.253906 -2.75 7.425781 -2.992188 7.835938 -3.128906 C 9.867188 -3.882812 11.960938 -4.539062 14.058594 -5.085938 C 14.851562 -5.292969 15.640625 -5.5 16.464844 -5.742188 C 16.261719 -6.085938 15.949219 -6.117188 15.675781 -6.117188 C 15.433594 -6.117188 15.195312 -6.085938 14.953125 -6.050781 C 13.40625 -5.707031 11.859375 -5.292969 10.3125 -4.882812 C 9.453125 -4.640625 8.628906 -4.398438 7.734375 -4.160156 C 7.664062 -4.503906 7.804688 -4.742188 7.871094 -5.019531 C 8.007812 -5.84375 8.042969 -6.667969 7.734375 -7.460938 C 7.5625 -7.941406 7.289062 -8.320312 6.804688 -8.523438 C 5.84375 -8.902344 4.882812 -8.902344 3.988281 -8.320312 C 3.164062 -7.769531 2.40625 -7.117188 1.753906 -6.394531 C 1.582031 -6.222656 1.445312 -5.980469 1.066406 -5.914062 C 1.375 -6.703125 1.683594 -7.425781 1.992188 -8.148438 C 4.089844 -12.648438 6.394531 -17.085938 8.902344 -21.382812 Z M 4.777344 -1.203125 C 3.507812 1.890625 1.960938 4.882812 -0.136719 7.492188 C -1.273438 8.902344 -2.578125 10.105469 -4.261719 10.863281 C -4.742188 11.070312 -5.226562 11.242188 -5.773438 11.242188 C -6.289062 11.207031 -6.632812 11 -6.875 10.554688 C -7.183594 9.933594 -7.289062 9.28125 -7.082031 8.628906 C -6.566406 6.875 -5.464844 5.535156 -4.226562 4.261719 C -4.023438 4.089844 -3.851562 4.160156 -3.644531 4.226562 C -2.886719 4.367188 -2.714844 4.296875 -2.40625 3.609375 C -2.335938 3.4375 -2.234375 3.300781 -2.199219 3.164062 C -2.132812 2.335938 -1.511719 1.890625 -0.894531 1.476562 C 0.824219 0.273438 2.613281 -0.722656 4.46875 -1.648438 C 4.605469 -1.71875 4.710938 -1.789062 4.847656 -1.71875 C 4.984375 -1.546875 4.847656 -1.375 4.777344 -1.203125 Z M 3.335938 -6.222656 C 3.953125 -6.804688 4.605469 -7.289062 5.328125 -7.664062 C 5.671875 -7.835938 5.84375 -7.734375 5.914062 -7.425781 C 6.015625 -6.976562 6.050781 -6.566406 6.050781 -6.152344 C 6.015625 -5.328125 5.808594 -4.503906 5.636719 -3.710938 C 5.535156 -3.265625 5.257812 -3.023438 4.882812 -2.851562 C 3.164062 -2.097656 1.511719 -1.167969 -0.101562 -0.207031 C -0.445312 0 -0.722656 0.308594 -1.101562 0.378906 C -1.203125 0.171875 -1.132812 0.0351562 -1.066406 -0.101562 C 0.171875 -2.304688 1.476562 -4.46875 3.335938 -6.222656 Z M 3.335938 -6.222656 "/></g></g></g><g fill="#fafafa" fill-opacity="1"><g transform="translate(105.253025, 138.283838)"><g><path d="M 0.34375 0.652344 C 0.585938 0.445312 0.859375 0.273438 1.101562 0.0351562 C 1.855469 -0.652344 2.613281 -1.375 3.402344 -2.027344 C 3.851562 -2.40625 4.226562 -2.886719 4.777344 -3.195312 C 4.8125 -3.128906 4.847656 -3.058594 4.847656 -3.023438 C 4.742188 -2.578125 4.640625 -2.097656 4.503906 -1.617188 C 3.882812 0.789062 3.574219 3.230469 3.710938 5.707031 C 3.816406 7.046875 4.054688 8.320312 4.742188 9.488281 C 5.464844 10.757812 6.496094 11.585938 8.007812 11.757812 C 9.589844 11.996094 11.035156 11.617188 12.304688 10.691406 C 13.335938 9.933594 14.265625 9.039062 15.125 8.078125 C 17.050781 5.914062 19.011719 3.746094 21.039062 1.648438 C 24.027344 -1.445312 27.292969 -4.125 31.386719 -5.773438 C 31.558594 -5.808594 31.730469 -5.878906 31.867188 -6.117188 C 31.558594 -6.394531 31.28125 -6.289062 31.007812 -6.1875 C 27.878906 -5.226562 25.300781 -3.507812 23.03125 -1.304688 C 20.933594 0.757812 18.871094 2.820312 16.914062 4.984375 C 15.503906 6.496094 14.058594 8.007812 12.445312 9.316406 C 11.515625 10.105469 10.484375 10.65625 9.28125 10.929688 C 8.421875 11.136719 7.769531 10.898438 7.289062 10.242188 C 6.976562 9.832031 6.738281 9.382812 6.53125 8.902344 C 6.085938 7.734375 5.980469 6.53125 5.914062 5.292969 C 5.742188 1.617188 6.703125 -1.855469 7.699219 -5.363281 C 7.804688 -5.742188 8.078125 -5.773438 8.386719 -5.742188 C 9.933594 -5.570312 11.378906 -5.914062 12.789062 -6.359375 C 15.089844 -7.117188 17.222656 -8.214844 19.285156 -9.488281 C 21.761719 -11.070312 24.027344 -12.890625 26.160156 -14.917969 C 28.53125 -17.222656 30.765625 -19.628906 32.554688 -22.378906 C 33.480469 -23.789062 34.273438 -25.265625 34.652344 -26.917969 C 34.960938 -28.121094 35.027344 -29.355469 34.753906 -30.59375 C 34.582031 -31.589844 34.03125 -32.382812 33.105469 -32.898438 C 31.351562 -33.824219 29.5625 -33.792969 27.742188 -33.136719 C 25.988281 -32.519531 24.40625 -31.589844 22.894531 -30.527344 C 20.453125 -28.808594 18.355469 -26.710938 16.292969 -24.578125 C 12.648438 -20.761719 9.96875 -16.398438 7.90625 -11.617188 C 7.425781 -10.519531 6.976562 -9.382812 6.566406 -8.25 C 6.394531 -7.804688 6.359375 -7.804688 5.914062 -8.042969 C 5.5 -8.320312 5.085938 -8.457031 4.605469 -8.523438 C 3.058594 -8.765625 1.820312 -8.179688 0.757812 -7.183594 C -0.34375 -6.117188 -1.167969 -4.882812 -1.789062 -3.539062 C -2.269531 -2.542969 -2.613281 -1.476562 -2.542969 -0.34375 C -2.507812 0.515625 -2.164062 0.929688 -1.273438 1.03125 C -0.6875 1.132812 -0.136719 1.03125 0.34375 0.652344 Z M 8.285156 -7.117188 C 9.761719 -11.136719 11.585938 -14.953125 13.992188 -18.527344 C 16.605469 -22.449219 19.699219 -25.988281 23.375 -29.011719 C 24.683594 -30.113281 26.058594 -31.074219 27.570312 -31.867188 C 28.394531 -32.277344 29.253906 -32.65625 30.214844 -32.792969 C 31.453125 -32.964844 32.484375 -32.417969 32.933594 -31.28125 C 33.277344 -30.492188 33.34375 -29.667969 33.34375 -28.839844 C 33.34375 -27.019531 32.726562 -25.371094 31.867188 -23.753906 C 30.457031 -21.140625 28.636719 -18.839844 26.539062 -16.707031 C 24.683594 -14.78125 22.6875 -12.992188 20.453125 -11.445312 C 17.875 -9.625 15.160156 -8.078125 12.132812 -7.046875 C 11.070312 -6.667969 10.003906 -6.359375 8.867188 -6.324219 C 8.042969 -6.289062 8.007812 -6.359375 8.285156 -7.117188 Z M -1.101562 -0.273438 C -1.066406 -1.03125 -0.824219 -1.753906 -0.550781 -2.441406 C 0.207031 -4.195312 1.273438 -5.707031 2.820312 -6.910156 C 3.195312 -7.183594 3.609375 -7.390625 4.054688 -7.527344 C 4.570312 -7.699219 4.675781 -7.664062 5.019531 -7.21875 C 5.328125 -6.839844 5.429688 -6.359375 5.535156 -5.878906 C 5.601562 -5.671875 5.5 -5.535156 5.328125 -5.429688 C 3.507812 -3.882812 1.890625 -2.132812 0.101562 -0.550781 C -0.101562 -0.378906 -0.34375 -0.207031 -0.550781 -0.0351562 C -0.6875 0.0703125 -0.824219 0.242188 -0.996094 0.136719 C -1.167969 0.0703125 -1.101562 -0.136719 -1.101562 -0.273438 Z M -1.101562 -0.273438 "/></g></g></g><g fill="#fafafa" fill-opacity="1"><g transform="translate(136.259833, 138.283838)"><g><path d="M 6.601562 1.410156 C 9.832031 0.207031 16.5 -4.882812 22.929688 -5.742188 C 22.722656 -6.1875 22.414062 -6.1875 22.136719 -6.1875 C 16.535156 -5.570312 9.179688 -0.722656 7.011719 0.308594 C 6.050781 0.757812 5.054688 1.066406 3.953125 1.167969 C 3.164062 1.238281 2.441406 1.066406 1.890625 0.414062 C 0.585938 -1.273438 0.480469 -3.023438 1.339844 -4.914062 C 1.511719 -5.292969 1.71875 -5.5 2.199219 -5.363281 C 2.851562 -5.191406 3.507812 -5.226562 4.160156 -5.429688 C 5.5 -5.878906 6.601562 -6.703125 7.597656 -7.664062 C 7.769531 -7.835938 7.871094 -8.007812 7.976562 -8.214844 C 8.25 -8.765625 8.148438 -9.316406 7.632812 -9.695312 C 6.804688 -10.277344 5.914062 -10.621094 4.914062 -10.3125 C 2.335938 -9.554688 0.378906 -8.042969 -0.585938 -5.464844 C -1.167969 -3.882812 -0.996094 -2.371094 -0.171875 -0.996094 C 1.511719 1.753906 3.507812 2.578125 6.601562 1.410156 Z M 6.53125 -9.007812 C 6.117188 -7.734375 3.882812 -6.324219 2.507812 -6.460938 C 3.058594 -7.664062 5.292969 -9.074219 6.53125 -9.007812 Z M 6.53125 -9.007812 "/></g></g></g><g fill="#fafafa" fill-opacity="1"><g transform="translate(158.672737, 138.283838)"><g><path d="M 15.46875 -5.914062 C 13.886719 -5.121094 12.410156 -4.195312 11.070312 -3.023438 C 9.28125 -1.511719 7.5625 0.136719 5.84375 1.753906 C 4.503906 3.058594 3.164062 4.367188 1.582031 5.398438 C 0.960938 5.808594 0.273438 6.117188 -0.445312 6.289062 C -1.101562 6.394531 -1.238281 6.324219 -1.511719 5.742188 C -1.753906 5.191406 -1.789062 4.605469 -1.789062 4.023438 C -1.855469 2.371094 -1.375 0.824219 -0.894531 -0.6875 C -0.0351562 -3.300781 1.066406 -5.773438 2.304688 -8.179688 C 2.679688 -8.9375 3.09375 -9.660156 3.472656 -10.414062 L 3.507812 -10.414062 C 12.476562 -20.453125 21.417969 -35.132812 21.621094 -37.605469 C 21.828125 -38.15625 21.105469 -39.359375 20.523438 -38.878906 C 20.246094 -38.636719 19.9375 -38.398438 19.699219 -38.121094 C 18.046875 -36.300781 16.433594 -34.445312 14.886719 -32.519531 C 13.0625 -30.285156 11.414062 -27.914062 9.832031 -25.472656 C 8.25 -22.964844 6.703125 -20.488281 5.226562 -17.910156 C 3.539062 -15.023438 1.960938 -12.101562 0.480469 -9.109375 C -0.515625 -7.183594 -1.445312 -5.226562 -2.164062 -3.164062 C -2.851562 -1.167969 -3.335938 0.824219 -3.335938 2.957031 C -3.335938 3.78125 -3.164062 4.539062 -2.851562 5.257812 C -2.304688 6.632812 -1.03125 7.253906 0.414062 6.875 C 0.6875 6.804688 0.960938 6.667969 1.238281 6.566406 C 2.097656 6.152344 2.820312 5.570312 3.539062 4.984375 C 5.707031 3.230469 7.664062 1.304688 9.660156 -0.617188 C 10.621094 -1.511719 11.585938 -2.476562 12.582031 -3.367188 C 13.75 -4.398438 15.058594 -5.226562 16.605469 -5.914062 C 16.121094 -6.222656 15.777344 -6.085938 15.46875 -5.914062 Z M 6.015625 -15.089844 C 8.214844 -18.976562 10.554688 -22.757812 13.027344 -26.503906 C 14.988281 -29.425781 17.222656 -32.175781 19.386719 -34.960938 C 19.800781 -35.476562 20.214844 -35.992188 20.625 -36.507812 C 19.835938 -34.789062 18.21875 -31.933594 15.710938 -27.980469 C 12.304688 -22.621094 8.492188 -17.394531 4.949219 -13.164062 C 5.292969 -13.820312 5.671875 -14.472656 6.015625 -15.089844 Z M 6.015625 -15.089844 "/></g></g></g><g fill="#fafafa" fill-opacity="1"><g transform="translate(173.935514, 138.283838)"><g><path d="M -2.507812 10.898438 C -1.683594 10.964844 0 10.242188 0.6875 9.523438 C 0.789062 9.417969 1.03125 9.28125 0.859375 9.109375 C 0.6875 8.902344 0.480469 9.007812 0.34375 9.144531 C -0.207031 9.625 -0.824219 9.933594 -1.476562 10.210938 C -3.09375 10.929688 -4.023438 10.3125 -3.988281 8.523438 C -3.988281 7.320312 -3.574219 6.1875 -3.058594 5.085938 C -2.027344 2.886719 -0.652344 0.929688 0.652344 -1.066406 C 1.101562 -1.789062 1.511719 -2.507812 1.753906 -3.335938 C 1.890625 -3.78125 2.0625 -4.367188 1.71875 -4.675781 C 0.996094 -5.398438 1.375 -5.878906 1.960938 -6.394531 C 2.097656 -6.496094 2.164062 -6.703125 2.234375 -6.910156 C 2.304688 -7.117188 2.304688 -7.320312 2.132812 -7.460938 C 1.789062 -7.871094 1.339844 -8.078125 0.789062 -7.976562 C 0.136719 -7.835938 -0.34375 -7.460938 -0.515625 -6.773438 C -0.652344 -6.222656 -0.480469 -5.636719 -0.0351562 -5.328125 C 0.34375 -5.085938 0.378906 -4.8125 0.308594 -4.46875 C 0.242188 -3.816406 0 -3.230469 -0.34375 -2.679688 C -0.894531 -1.789062 -1.445312 -0.894531 -1.992188 -0.0351562 C -2.992188 1.511719 -3.917969 3.058594 -4.570312 4.742188 C -5.085938 6.1875 -5.292969 7.632812 -4.8125 9.144531 C -4.503906 10.105469 -3.507812 10.863281 -2.507812 10.898438 Z M -2.507812 10.898438 "/></g></g></g><g fill="#fafafa" fill-opacity="1"><g transform="translate(183.045049, 138.283838)"><g><path d="M 20.933594 -5.363281 C 19.011719 -4.367188 17.222656 -3.195312 15.605469 -1.753906 C 13.476562 0.136719 11.617188 2.304688 9.695312 4.398438 C 8.695312 5.5 7.632812 6.566406 6.324219 7.289062 C 5.601562 7.734375 5.226562 7.527344 5.121094 6.738281 C 5.085938 6.496094 5.085938 6.257812 5.121094 6.015625 C 5.191406 5.535156 5.292969 5.054688 5.429688 4.605469 C 6.050781 2.578125 6.945312 0.652344 7.941406 -1.238281 C 8.867188 -3.058594 9.832031 -4.882812 10.757812 -6.703125 C 11.171875 -7.492188 11.480469 -8.386719 11.652344 -9.246094 C 11.894531 -10.3125 11.414062 -10.863281 10.3125 -10.863281 C 9.695312 -10.828125 9.179688 -10.554688 8.664062 -10.242188 C 7.046875 -9.179688 5.636719 -7.804688 4.226562 -6.496094 C 3.164062 -5.5 2.132812 -4.433594 0.894531 -3.574219 C 0.929688 -4.605469 1.167969 -5.601562 1.511719 -6.53125 C 2.785156 -10.039062 4.226562 -13.476562 5.878906 -16.808594 C 6.875 -18.976562 8.007812 -21.039062 9.144531 -23.101562 C 11.378906 -27.15625 13.785156 -31.144531 16.328125 -34.996094 C 16.949219 -35.921875 17.496094 -36.917969 18.011719 -37.917969 C 18.253906 -38.398438 18.152344 -38.570312 17.636719 -38.742188 C 17.015625 -38.949219 16.570312 -38.808594 16.15625 -38.226562 C 15.332031 -37.023438 14.507812 -35.855469 13.714844 -34.683594 C 10.863281 -30.355469 8.214844 -25.917969 5.84375 -21.347656 C 3.851562 -17.429688 1.960938 -13.476562 0.34375 -9.382812 C -0.378906 -7.597656 -0.960938 -5.773438 -1.03125 -3.851562 C -1.101562 -2.714844 -0.515625 -2.199219 0.585938 -2.304688 C 0.996094 -2.335938 1.339844 -2.507812 1.683594 -2.75 C 2.027344 -3.058594 2.371094 -3.335938 2.679688 -3.644531 C 4.296875 -5.15625 5.84375 -6.738281 7.527344 -8.148438 C 8.25 -8.730469 8.972656 -9.351562 9.832031 -9.695312 C 10.003906 -9.453125 9.898438 -9.246094 9.796875 -9.039062 C 9.625 -8.59375 9.417969 -8.113281 9.210938 -7.664062 C 8.457031 -5.945312 7.425781 -4.398438 6.601562 -2.75 C 5.570312 -0.789062 4.570312 1.132812 4.023438 3.265625 C 3.746094 4.398438 3.472656 5.535156 3.78125 6.738281 C 4.023438 7.699219 4.539062 8.113281 5.535156 8.113281 C 6.324219 8.148438 7.011719 7.835938 7.597656 7.355469 C 8.320312 6.839844 8.972656 6.257812 9.589844 5.636719 C 11.171875 4.023438 12.753906 2.441406 14.335938 0.789062 C 16.570312 -1.476562 18.941406 -3.539062 21.726562 -5.085938 C 21.898438 -5.191406 22.136719 -5.257812 22.070312 -5.535156 C 21.519531 -5.636719 21.519531 -5.636719 20.933594 -5.363281 Z M 20.933594 -5.363281 "/></g></g></g><g fill="#fafafa" fill-opacity="1"><g transform="translate(204.151679, 138.283838)"><g><path d="M 29.597656 -5.980469 C 29.527344 -5.945312 29.460938 -5.914062 29.390625 -5.84375 C 28.601562 -5.363281 27.808594 -4.882812 27.019531 -4.398438 C 25.335938 -3.367188 23.683594 -2.304688 21.863281 -1.511719 C 20.453125 -0.894531 19.011719 -0.515625 17.464844 -0.550781 C 16.464844 -0.550781 16.328125 -0.757812 16.535156 -1.683594 C 16.570312 -1.820312 16.605469 -1.960938 16.636719 -2.097656 C 16.742188 -2.507812 16.878906 -2.921875 16.914062 -3.335938 C 16.949219 -4.023438 16.671875 -4.570312 16.121094 -4.984375 C 15.574219 -5.363281 15.125 -5.085938 14.644531 -4.847656 C 13.75 -4.367188 12.925781 -3.746094 12.066406 -3.195312 C 11.929688 -3.128906 11.824219 -2.921875 11.550781 -3.058594 C 11.652344 -3.644531 12.066406 -4.054688 12.304688 -4.605469 C 12.992188 -6.085938 13.785156 -7.527344 14.746094 -8.902344 C 15.8125 -10.382812 16.808594 -11.859375 17.839844 -13.371094 C 18.355469 -14.164062 18.804688 -14.988281 19.042969 -15.949219 C 19.421875 -17.601562 17.910156 -19.214844 16.226562 -18.839844 C 14.746094 -18.496094 13.40625 -17.875 12.167969 -17.015625 C 9.726562 -15.261719 7.664062 -13.0625 5.671875 -10.828125 C 4.296875 -9.246094 3.128906 -7.527344 1.960938 -5.808594 C 1.789062 -5.570312 1.648438 -5.292969 1.304688 -5.121094 C 1.304688 -5.570312 1.476562 -5.914062 1.617188 -6.257812 C 1.890625 -6.839844 2.132812 -7.425781 2.441406 -7.976562 C 2.648438 -8.320312 2.441406 -8.800781 2.027344 -9.039062 C 1.683594 -9.246094 1.445312 -9.109375 1.203125 -8.800781 C 0.929688 -8.421875 0.652344 -8.042969 0.445312 -7.597656 C -0.308594 -5.914062 -0.515625 -4.125 -0.722656 -2.335938 C -0.789062 -1.820312 -0.550781 -1.445312 -0.207031 -1.132812 C 0.171875 -0.824219 0.378906 -0.859375 0.652344 -1.273438 C 1.132812 -1.992188 1.582031 -2.75 2.027344 -3.507812 C 4.433594 -7.425781 7.183594 -11.070312 10.792969 -13.957031 C 12.375 -15.195312 14.027344 -16.328125 15.917969 -17.015625 C 16.433594 -17.1875 16.914062 -17.394531 17.566406 -17.292969 C 17.53125 -16.808594 17.359375 -16.464844 17.1875 -16.089844 C 16.949219 -15.605469 16.636719 -15.125 16.363281 -14.644531 C 15.261719 -12.683594 13.820312 -10.964844 12.582031 -9.109375 C 11.273438 -7.148438 10.210938 -5.085938 9.453125 -2.851562 C 9.316406 -2.476562 9.179688 -2.0625 9.210938 -1.617188 C 9.246094 -1.066406 9.589844 -0.757812 10.039062 -0.515625 C 10.449219 -0.308594 10.65625 -0.6875 10.929688 -0.894531 C 11.960938 -1.753906 13.0625 -2.578125 14.265625 -3.195312 C 14.542969 -3.367188 14.851562 -3.574219 15.230469 -3.507812 C 15.195312 -2.957031 15.160156 -2.507812 15.125 -2.027344 C 14.988281 -0.585938 16.464844 0.859375 18.046875 0.515625 C 19.902344 0.136719 21.621094 -0.550781 23.238281 -1.476562 C 24.714844 -2.304688 26.160156 -3.230469 27.605469 -4.089844 C 28.359375 -4.570312 29.082031 -5.054688 29.839844 -5.5 C 29.976562 -5.601562 30.078125 -5.707031 29.941406 -5.914062 C 29.871094 -6.015625 29.734375 -6.050781 29.597656 -5.980469 Z M 29.597656 -5.980469 "/></g></g></g><g fill="#fafafa" fill-opacity="1"><g transform="translate(233.783457, 138.283838)"><g><path d="M 2.40625 -1.101562 C 2.476562 -0.378906 2.578125 0.34375 2.921875 0.996094 C 4.089844 3.195312 6.429688 3.679688 8.386719 2.851562 C 12.339844 1.167969 19.765625 -5.328125 24.027344 -5.84375 C 23.996094 -5.980469 23.996094 -6.050781 23.960938 -6.085938 C 22.792969 -7.390625 12.238281 -0.136719 8.765625 1.546875 C 7.871094 1.992188 6.976562 2.371094 5.945312 2.371094 C 5.429688 2.335938 5.085938 2.132812 4.882812 1.648438 C 4.675781 1.167969 4.570312 0.652344 4.570312 0.101562 C 4.539062 -1.132812 4.777344 -2.304688 5.257812 -3.472656 C 5.636719 -4.433594 6.222656 -5.292969 6.738281 -6.1875 C 7.117188 -6.910156 7.046875 -7.148438 6.324219 -7.492188 C 6.117188 -7.597656 5.914062 -7.734375 5.707031 -7.664062 C 5.328125 -7.527344 5.121094 -7.734375 4.847656 -7.90625 C 3.816406 -8.492188 2.785156 -8.628906 1.753906 -7.976562 C -0.722656 -6.429688 -1.855469 -4.089844 -1.789062 -1.238281 C -1.789062 -0.273438 -0.6875 0.273438 0.207031 -0.136719 C 0.550781 -0.308594 0.859375 -0.550781 1.101562 -0.824219 C 1.476562 -1.167969 1.855469 -1.546875 2.269531 -1.960938 C 2.40625 -1.617188 2.371094 -1.339844 2.40625 -1.101562 Z M 0.480469 -1.511719 C 0.242188 -1.304688 -0.0351562 -1.132812 -0.414062 -0.859375 C -0.414062 -1.617188 -0.273438 -2.164062 -0.0703125 -2.648438 C 0.550781 -4.226562 1.445312 -5.570312 2.75 -6.667969 C 2.992188 -6.875 3.300781 -7.011719 3.574219 -7.183594 C 3.746094 -7.289062 3.988281 -7.320312 4.125 -7.082031 C 4.261719 -6.875 4.398438 -6.703125 4.226562 -6.429688 C 3.128906 -4.675781 2.0625 -2.886719 0.480469 -1.511719 Z M 0.480469 -1.511719 "/></g></g></g><g fill="#fafafa" fill-opacity="1"><g transform="translate(256.987004, 138.283838)"><g><path d="M 22.171875 -6.496094 C 22.035156 -6.496094 21.898438 -6.429688 21.792969 -6.394531 C 20.453125 -5.742188 19.113281 -5.054688 17.839844 -4.296875 C 16.054688 -3.195312 14.265625 -2.097656 12.339844 -1.167969 C 11.378906 -0.722656 10.382812 -0.207031 9.316406 -0.0351562 C 8.179688 0.136719 7.941406 -0.101562 8.042969 -1.203125 C 8.042969 -1.273438 8.042969 -1.375 8.042969 -1.445312 C 8.179688 -2.304688 8.457031 -3.09375 8.835938 -3.851562 C 9.351562 -4.949219 9.898438 -6.015625 10.449219 -7.082031 C 10.726562 -7.632812 10.929688 -8.179688 11.101562 -8.765625 C 11.308594 -9.554688 11 -10.175781 10.414062 -10.691406 C 9.832031 -11.171875 9.28125 -10.964844 8.730469 -10.65625 C 8.113281 -10.3125 7.597656 -9.867188 7.082031 -9.382812 C 5.226562 -7.734375 3.472656 -5.980469 1.753906 -4.226562 C 1.445312 -3.882812 1.132812 -3.574219 0.585938 -3.4375 C 0.617188 -3.917969 0.789062 -4.296875 0.960938 -4.675781 C 1.410156 -5.671875 1.992188 -6.601562 2.613281 -7.492188 C 3.195312 -8.25 3.023438 -8.9375 2.269531 -9.417969 C 1.925781 -9.625 1.648438 -9.625 1.375 -9.351562 C -0.0703125 -7.941406 -0.960938 -6.289062 -0.894531 -4.195312 C -0.859375 -3.539062 -0.617188 -2.992188 -0.207031 -2.507812 C 0.273438 -1.960938 0.722656 -1.890625 1.304688 -2.335938 C 1.546875 -2.507812 1.789062 -2.679688 1.992188 -2.886719 C 3.679688 -4.570312 5.257812 -6.394531 7.082031 -7.941406 C 7.835938 -8.59375 8.558594 -9.210938 9.695312 -9.589844 C 9.246094 -8.492188 8.664062 -7.632812 8.148438 -6.773438 C 7.183594 -5.121094 6.773438 -3.367188 6.945312 -1.511719 C 7.082031 0.0703125 8.285156 1.476562 10.3125 0.757812 C 11.445312 0.34375 12.546875 -0.136719 13.578125 -0.722656 C 15.574219 -1.789062 17.429688 -2.992188 19.355469 -4.125 C 20.351562 -4.675781 21.3125 -5.226562 22.277344 -5.773438 C 22.414062 -5.878906 22.652344 -5.914062 22.585938 -6.1875 C 22.515625 -6.359375 22.378906 -6.496094 22.171875 -6.496094 Z M 22.171875 -6.496094 "/></g></g></g><g fill="#fafafa" fill-opacity="1"><g transform="translate(278.643643, 138.283838)"><g/></g></g><g fill="#fafafa" fill-opacity="1"><g transform="translate(292.3939, 138.283838)"><g><path d="M 12.445312 9.109375 C 16.089844 8.007812 19.558594 6.496094 22.996094 5.019531 C 23.410156 4.847656 23.683594 4.8125 24.0625 5.019531 C 28.257812 7.289062 32.691406 8.386719 37.46875 7.734375 C 40.21875 7.355469 42.832031 6.601562 45.066406 4.8125 C 46.03125 4.054688 46.75 3.164062 47.164062 1.992188 C 47.609375 0.652344 47.234375 -0.480469 46.097656 -1.304688 C 44.828125 -2.234375 43.347656 -2.441406 41.835938 -2.371094 C 39.1875 -2.269531 36.679688 -1.683594 34.167969 -0.894531 C 30.527344 0.207031 26.949219 1.617188 23.511719 3.230469 C 23.238281 3.367188 23.03125 3.472656 22.722656 3.265625 C 21.105469 2.199219 19.59375 0.996094 18.390625 -0.585938 C 16.328125 -3.265625 15.402344 -6.359375 15.089844 -9.695312 C 14.78125 -12.890625 15.332031 -15.882812 17.1875 -18.496094 C 20.109375 -22.6875 23.960938 -25.027344 29.253906 -24.234375 C 31.144531 -23.960938 32.792969 -23.101562 33.722656 -21.347656 C 34.480469 -19.871094 35.476562 -18.5625 36.335938 -17.152344 C 36.4375 -16.949219 36.609375 -16.777344 36.816406 -16.671875 C 37.125 -16.433594 37.503906 -16.292969 37.8125 -16.535156 C 38.089844 -16.777344 37.777344 -17.085938 37.675781 -17.324219 C 36.78125 -19.25 35.886719 -21.175781 35.132812 -23.167969 C 34.167969 -25.746094 33.480469 -28.394531 33.824219 -31.179688 C 34.167969 -33.824219 35.097656 -36.265625 37.367188 -37.882812 C 40.183594 -39.910156 42.25 -39.53125 44.171875 -37.195312 C 44.207031 -37.160156 44.207031 -37.160156 44.242188 -37.125 C 46.203125 -34.683594 47.371094 -31.933594 47.78125 -28.875 C 47.816406 -28.429688 47.921875 -28.015625 48.09375 -27.636719 C 48.230469 -27.328125 48.503906 -27.226562 48.847656 -27.226562 C 49.191406 -27.226562 49.191406 -27.5 49.261719 -27.742188 C 49.328125 -27.949219 49.328125 -28.152344 49.363281 -28.359375 C 49.398438 -32.417969 46.304688 -37.984375 43.382812 -39.359375 C 41.148438 -40.390625 38.949219 -40.390625 36.78125 -39.222656 C 33.757812 -37.605469 32.449219 -34.824219 31.902344 -31.625 C 31.488281 -29.152344 31.96875 -26.746094 32.65625 -24.371094 C 32.691406 -24.167969 32.828125 -24.027344 32.726562 -23.824219 C 32.691406 -23.824219 32.621094 -23.824219 32.621094 -23.855469 C 32.519531 -23.890625 32.417969 -23.960938 32.3125 -24.027344 C 29.90625 -25.507812 27.292969 -25.953125 24.542969 -25.4375 C 19.421875 -24.476562 16.121094 -21.210938 14.230469 -16.535156 C 11.929688 -10.898438 13.820312 -3.402344 18.390625 1.03125 C 19.457031 2.0625 20.660156 2.992188 22.035156 3.882812 C 18.289062 5.535156 14.679688 7.21875 10.792969 8.285156 C 6.703125 9.417969 2.921875 9.523438 2.441406 5.257812 C 2.441406 4.398438 2.027344 4.195312 1.683594 4.195312 C 1.410156 4.160156 1.304688 4.398438 1.339844 4.675781 C 2.304688 10.039062 7.632812 10.554688 12.445312 9.109375 Z M 30.699219 1.820312 C 34.238281 0.445312 37.8125 -0.757812 41.628906 -1.101562 C 42.488281 -1.167969 43.347656 -1.203125 44.207031 -1.132812 C 45.410156 -0.996094 45.6875 -0.617188 45.515625 0.550781 C 45.34375 1.71875 44.757812 2.679688 43.828125 3.4375 C 42.28125 4.742188 40.425781 5.535156 38.464844 6.015625 C 33.792969 7.148438 29.289062 6.667969 24.992188 4.503906 C 24.921875 4.46875 24.855469 4.398438 24.648438 4.296875 C 26.746094 3.4375 28.703125 2.578125 30.699219 1.820312 Z M 30.699219 1.820312 "/></g></g></g><g fill="#fafafa" fill-opacity="1"><g transform="translate(342.926053, 138.283838)"><g><path d="M 1.546875 4.539062 C 1.71875 4.710938 1.925781 4.914062 2.199219 4.742188 C 2.507812 4.605469 2.679688 4.367188 2.714844 4.054688 C 2.75 3.746094 2.542969 3.402344 2.199219 3.058594 C 1.855469 2.714844 1.476562 2.75 1.203125 3.195312 C 0.929688 3.609375 1.066406 4.125 1.546875 4.539062 Z M 1.546875 4.539062 "/></g></g></g><g fill="#fafafa" fill-opacity="1"><g transform="translate(162.078402, 171.243497)"><g><path d="M 5.328125 -0.578125 L 5.328125 0 L 0.84375 0 L 0.84375 -6.6875 L 5.25 -6.6875 L 5.25 -6.109375 L 1.5 -6.109375 L 1.5 -3.6875 L 4.765625 -3.6875 L 4.765625 -3.140625 L 1.5 -3.140625 L 1.5 -0.578125 Z M 5.328125 -0.578125 "/></g></g></g><g fill="#fafafa" fill-opacity="1"><g transform="translate(171.585418, 171.243497)"><g><path d="M 4.75 -5.4375 C 4.5625 -5.644531 4.3125 -5.816406 4 -5.953125 C 3.6875 -6.085938 3.328125 -6.15625 2.921875 -6.15625 C 2.328125 -6.15625 1.894531 -6.039062 1.625 -5.8125 C 1.351562 -5.59375 1.21875 -5.289062 1.21875 -4.90625 C 1.21875 -4.707031 1.253906 -4.539062 1.328125 -4.40625 C 1.398438 -4.28125 1.507812 -4.171875 1.65625 -4.078125 C 1.8125 -3.984375 2.003906 -3.898438 2.234375 -3.828125 C 2.472656 -3.765625 2.753906 -3.695312 3.078125 -3.625 C 3.441406 -3.550781 3.765625 -3.46875 4.046875 -3.375 C 4.328125 -3.28125 4.566406 -3.160156 4.765625 -3.015625 C 4.972656 -2.878906 5.128906 -2.707031 5.234375 -2.5 C 5.347656 -2.300781 5.40625 -2.050781 5.40625 -1.75 C 5.40625 -1.445312 5.34375 -1.179688 5.21875 -0.953125 C 5.101562 -0.722656 4.9375 -0.53125 4.71875 -0.375 C 4.507812 -0.226562 4.253906 -0.117188 3.953125 -0.046875 C 3.660156 0.0234375 3.335938 0.0625 2.984375 0.0625 C 1.953125 0.0625 1.054688 -0.257812 0.296875 -0.90625 L 0.625 -1.453125 C 0.75 -1.328125 0.894531 -1.207031 1.0625 -1.09375 C 1.226562 -0.976562 1.410156 -0.878906 1.609375 -0.796875 C 1.816406 -0.710938 2.035156 -0.644531 2.265625 -0.59375 C 2.503906 -0.550781 2.75 -0.53125 3 -0.53125 C 3.539062 -0.53125 3.957031 -0.625 4.25 -0.8125 C 4.550781 -1.007812 4.703125 -1.300781 4.703125 -1.6875 C 4.703125 -1.894531 4.660156 -2.066406 4.578125 -2.203125 C 4.492188 -2.347656 4.363281 -2.472656 4.1875 -2.578125 C 4.019531 -2.679688 3.8125 -2.769531 3.5625 -2.84375 C 3.3125 -2.914062 3.019531 -2.992188 2.6875 -3.078125 C 2.332031 -3.148438 2.019531 -3.226562 1.75 -3.3125 C 1.488281 -3.40625 1.265625 -3.519531 1.078125 -3.65625 C 0.898438 -3.789062 0.765625 -3.945312 0.671875 -4.125 C 0.585938 -4.3125 0.546875 -4.539062 0.546875 -4.8125 C 0.546875 -5.125 0.601562 -5.398438 0.71875 -5.640625 C 0.832031 -5.878906 0.992188 -6.078125 1.203125 -6.234375 C 1.421875 -6.398438 1.675781 -6.523438 1.96875 -6.609375 C 2.257812 -6.691406 2.582031 -6.734375 2.9375 -6.734375 C 3.375 -6.734375 3.765625 -6.664062 4.109375 -6.53125 C 4.460938 -6.394531 4.78125 -6.207031 5.0625 -5.96875 Z M 4.75 -5.4375 "/></g></g></g><g fill="#fafafa" fill-opacity="1"><g transform="translate(181.07362, 171.243497)"><g><path d="M 5.59375 -6.109375 L 3.203125 -6.109375 L 3.203125 0 L 2.546875 0 L 2.546875 -6.109375 L 0.15625 -6.109375 L 0.15625 -6.6875 L 5.59375 -6.6875 Z M 5.59375 -6.109375 "/></g></g></g><g fill="#fafafa" fill-opacity="1"><g transform="translate(190.590062, 171.243497)"><g><path d="M 0.609375 0 L 0.609375 -0.921875 L 1.171875 -0.921875 L 1.171875 0 Z M 0.609375 0 "/></g></g></g><g fill="#fafafa" fill-opacity="1"><g transform="translate(196.140233, 171.243497)"><g/></g></g><g fill="#fafafa" fill-opacity="1"><g transform="translate(202.312215, 171.243497)"><g><path d="M 0.421875 0 C 0.421875 -0.21875 0.4375 -0.429688 0.46875 -0.640625 C 0.507812 -0.859375 0.582031 -1.070312 0.6875 -1.28125 C 0.800781 -1.5 0.957031 -1.707031 1.15625 -1.90625 C 1.363281 -2.101562 1.640625 -2.289062 1.984375 -2.46875 C 2.160156 -2.5625 2.347656 -2.65625 2.546875 -2.75 C 2.742188 -2.84375 2.925781 -2.941406 3.09375 -3.046875 C 3.257812 -3.160156 3.394531 -3.285156 3.5 -3.421875 C 3.613281 -3.566406 3.671875 -3.734375 3.671875 -3.921875 C 3.671875 -4.046875 3.640625 -4.164062 3.578125 -4.28125 C 3.523438 -4.394531 3.445312 -4.5 3.34375 -4.59375 C 3.238281 -4.6875 3.109375 -4.757812 2.953125 -4.8125 C 2.804688 -4.875 2.628906 -4.90625 2.421875 -4.90625 C 2.210938 -4.90625 2.023438 -4.875 1.859375 -4.8125 C 1.703125 -4.75 1.5625 -4.675781 1.4375 -4.59375 C 1.3125 -4.507812 1.203125 -4.421875 1.109375 -4.328125 C 1.023438 -4.242188 0.960938 -4.175781 0.921875 -4.125 L 0.5 -4.578125 C 0.539062 -4.617188 0.613281 -4.6875 0.71875 -4.78125 C 0.820312 -4.882812 0.957031 -4.984375 1.125 -5.078125 C 1.300781 -5.179688 1.503906 -5.269531 1.734375 -5.34375 C 1.972656 -5.425781 2.238281 -5.46875 2.53125 -5.46875 C 2.8125 -5.46875 3.066406 -5.425781 3.296875 -5.34375 C 3.523438 -5.269531 3.71875 -5.164062 3.875 -5.03125 C 4.03125 -4.894531 4.148438 -4.734375 4.234375 -4.546875 C 4.316406 -4.367188 4.359375 -4.1875 4.359375 -4 C 4.359375 -3.738281 4.300781 -3.515625 4.1875 -3.328125 C 4.070312 -3.140625 3.929688 -2.972656 3.765625 -2.828125 C 3.597656 -2.691406 3.421875 -2.578125 3.234375 -2.484375 C 3.046875 -2.390625 2.875 -2.304688 2.71875 -2.234375 C 2.519531 -2.140625 2.320312 -2.035156 2.125 -1.921875 C 1.9375 -1.816406 1.765625 -1.695312 1.609375 -1.5625 C 1.460938 -1.4375 1.34375 -1.289062 1.25 -1.125 C 1.15625 -0.96875 1.109375 -0.785156 1.109375 -0.578125 L 4.453125 -0.578125 L 4.453125 0 Z M 0.421875 0 "/></g></g></g><g fill="#fafafa" fill-opacity="1"><g transform="translate(210.990175, 171.243497)"><g><path d="M 5.25 -2.765625 C 5.25 -2.347656 5.1875 -1.960938 5.0625 -1.609375 C 4.945312 -1.265625 4.785156 -0.960938 4.578125 -0.703125 C 4.367188 -0.453125 4.117188 -0.253906 3.828125 -0.109375 C 3.535156 0.0234375 3.222656 0.09375 2.890625 0.09375 C 2.546875 0.09375 2.226562 0.0234375 1.9375 -0.109375 C 1.644531 -0.253906 1.394531 -0.453125 1.1875 -0.703125 C 0.976562 -0.960938 0.8125 -1.265625 0.6875 -1.609375 C 0.570312 -1.960938 0.515625 -2.347656 0.515625 -2.765625 C 0.515625 -3.171875 0.570312 -3.546875 0.6875 -3.890625 C 0.8125 -4.242188 0.976562 -4.546875 1.1875 -4.796875 C 1.394531 -5.054688 1.644531 -5.257812 1.9375 -5.40625 C 2.226562 -5.550781 2.546875 -5.625 2.890625 -5.625 C 3.222656 -5.625 3.535156 -5.550781 3.828125 -5.40625 C 4.117188 -5.257812 4.367188 -5.054688 4.578125 -4.796875 C 4.785156 -4.546875 4.945312 -4.242188 5.0625 -3.890625 C 5.1875 -3.546875 5.25 -3.171875 5.25 -2.765625 Z M 4.59375 -2.765625 C 4.59375 -3.097656 4.550781 -3.398438 4.46875 -3.671875 C 4.382812 -3.953125 4.265625 -4.191406 4.109375 -4.390625 C 3.960938 -4.585938 3.785156 -4.738281 3.578125 -4.84375 C 3.367188 -4.957031 3.140625 -5.015625 2.890625 -5.015625 C 2.628906 -5.015625 2.390625 -4.957031 2.171875 -4.84375 C 1.960938 -4.738281 1.78125 -4.585938 1.625 -4.390625 C 1.476562 -4.191406 1.363281 -3.953125 1.28125 -3.671875 C 1.195312 -3.398438 1.15625 -3.097656 1.15625 -2.765625 C 1.15625 -2.421875 1.195312 -2.109375 1.28125 -1.828125 C 1.363281 -1.554688 1.476562 -1.320312 1.625 -1.125 C 1.78125 -0.925781 1.960938 -0.773438 2.171875 -0.671875 C 2.390625 -0.566406 2.628906 -0.515625 2.890625 -0.515625 C 3.140625 -0.515625 3.367188 -0.566406 3.578125 -0.671875 C 3.785156 -0.773438 3.960938 -0.925781 4.109375 -1.125 C 4.265625 -1.320312 4.382812 -1.554688 4.46875 -1.828125 C 4.550781 -2.109375 4.59375 -2.421875 4.59375 -2.765625 Z M 4.59375 -2.765625 "/></g></g></g><g fill="#fafafa" fill-opacity="1"><g transform="translate(220.525462, 171.243497)"><g><path d="M 3.828125 -0.578125 L 3.828125 0 L 0.625 0 L 0.625 -0.578125 L 1.96875 -0.578125 L 1.96875 -4.609375 C 1.914062 -4.535156 1.828125 -4.453125 1.703125 -4.359375 C 1.585938 -4.273438 1.453125 -4.195312 1.296875 -4.125 C 1.148438 -4.050781 1 -3.988281 0.84375 -3.9375 C 0.6875 -3.882812 0.550781 -3.859375 0.4375 -3.859375 L 0.4375 -4.484375 C 0.582031 -4.484375 0.738281 -4.523438 0.90625 -4.609375 C 1.082031 -4.691406 1.242188 -4.785156 1.390625 -4.890625 C 1.546875 -4.992188 1.675781 -5.09375 1.78125 -5.1875 C 1.894531 -5.28125 1.957031 -5.34375 1.96875 -5.375 L 2.625 -5.375 L 2.625 -0.578125 Z M 3.828125 -0.578125 "/></g></g></g><g fill="#fafafa" fill-opacity="1"><g transform="translate(228.327297, 171.243497)"><g><path d="M 5.109375 -1.859375 C 5.109375 -1.554688 5.046875 -1.285156 4.921875 -1.046875 C 4.796875 -0.816406 4.625 -0.617188 4.40625 -0.453125 C 4.195312 -0.285156 3.945312 -0.15625 3.65625 -0.0625 C 3.375 0.03125 3.078125 0.078125 2.765625 0.078125 C 2.429688 0.078125 2.125 0.0234375 1.84375 -0.078125 C 1.5625 -0.179688 1.316406 -0.320312 1.109375 -0.5 C 0.910156 -0.675781 0.753906 -0.882812 0.640625 -1.125 C 0.523438 -1.363281 0.46875 -1.617188 0.46875 -1.890625 C 0.46875 -2.109375 0.503906 -2.304688 0.578125 -2.484375 C 0.660156 -2.671875 0.765625 -2.832031 0.890625 -2.96875 C 1.015625 -3.113281 1.15625 -3.238281 1.3125 -3.34375 C 1.476562 -3.445312 1.644531 -3.523438 1.8125 -3.578125 C 1.65625 -3.640625 1.507812 -3.71875 1.375 -3.8125 C 1.25 -3.90625 1.132812 -4.007812 1.03125 -4.125 C 0.9375 -4.25 0.859375 -4.378906 0.796875 -4.515625 C 0.734375 -4.660156 0.703125 -4.816406 0.703125 -4.984375 C 0.703125 -5.265625 0.765625 -5.507812 0.890625 -5.71875 C 1.015625 -5.925781 1.175781 -6.101562 1.375 -6.25 C 1.570312 -6.394531 1.796875 -6.503906 2.046875 -6.578125 C 2.296875 -6.648438 2.546875 -6.6875 2.796875 -6.6875 C 3.046875 -6.6875 3.296875 -6.648438 3.546875 -6.578125 C 3.796875 -6.503906 4.019531 -6.394531 4.21875 -6.25 C 4.414062 -6.113281 4.578125 -5.9375 4.703125 -5.71875 C 4.828125 -5.507812 4.890625 -5.269531 4.890625 -5 C 4.890625 -4.832031 4.859375 -4.675781 4.796875 -4.53125 C 4.734375 -4.382812 4.648438 -4.25 4.546875 -4.125 C 4.453125 -4.007812 4.335938 -3.90625 4.203125 -3.8125 C 4.066406 -3.71875 3.921875 -3.640625 3.765625 -3.578125 C 3.953125 -3.515625 4.125 -3.425781 4.28125 -3.3125 C 4.445312 -3.207031 4.59375 -3.082031 4.71875 -2.9375 C 4.84375 -2.789062 4.9375 -2.625 5 -2.4375 C 5.070312 -2.257812 5.109375 -2.066406 5.109375 -1.859375 Z M 4.46875 -1.90625 C 4.46875 -2.132812 4.414062 -2.332031 4.3125 -2.5 C 4.21875 -2.675781 4.085938 -2.820312 3.921875 -2.9375 C 3.753906 -3.0625 3.570312 -3.15625 3.375 -3.21875 C 3.175781 -3.28125 2.976562 -3.3125 2.78125 -3.3125 C 2.570312 -3.3125 2.367188 -3.273438 2.171875 -3.203125 C 1.984375 -3.140625 1.804688 -3.046875 1.640625 -2.921875 C 1.484375 -2.796875 1.359375 -2.644531 1.265625 -2.46875 C 1.171875 -2.300781 1.125 -2.109375 1.125 -1.890625 C 1.125 -1.671875 1.175781 -1.472656 1.28125 -1.296875 C 1.382812 -1.128906 1.515625 -0.984375 1.671875 -0.859375 C 1.828125 -0.742188 2.003906 -0.65625 2.203125 -0.59375 C 2.398438 -0.53125 2.601562 -0.5 2.8125 -0.5 C 3.007812 -0.5 3.207031 -0.53125 3.40625 -0.59375 C 3.601562 -0.664062 3.78125 -0.757812 3.9375 -0.875 C 4.09375 -1 4.21875 -1.144531 4.3125 -1.3125 C 4.414062 -1.488281 4.46875 -1.6875 4.46875 -1.90625 Z M 1.34375 -4.953125 C 1.34375 -4.773438 1.382812 -4.613281 1.46875 -4.46875 C 1.5625 -4.332031 1.675781 -4.210938 1.8125 -4.109375 C 1.957031 -4.015625 2.113281 -3.941406 2.28125 -3.890625 C 2.457031 -3.835938 2.625 -3.8125 2.78125 -3.8125 C 2.957031 -3.8125 3.128906 -3.835938 3.296875 -3.890625 C 3.460938 -3.941406 3.613281 -4.015625 3.75 -4.109375 C 3.894531 -4.210938 4.007812 -4.335938 4.09375 -4.484375 C 4.1875 -4.628906 4.234375 -4.789062 4.234375 -4.96875 C 4.234375 -5.144531 4.191406 -5.300781 4.109375 -5.4375 C 4.035156 -5.582031 3.929688 -5.703125 3.796875 -5.796875 C 3.660156 -5.898438 3.503906 -5.976562 3.328125 -6.03125 C 3.148438 -6.082031 2.96875 -6.109375 2.78125 -6.109375 C 2.59375 -6.109375 2.410156 -6.078125 2.234375 -6.015625 C 2.066406 -5.960938 1.914062 -5.890625 1.78125 -5.796875 C 1.65625 -5.703125 1.550781 -5.582031 1.46875 -5.4375 C 1.382812 -5.289062 1.34375 -5.128906 1.34375 -4.953125 Z M 1.34375 -4.953125 "/></g></g></g></svg>